<svg viewBox="0 0 1000 597" fill="none" xmlns="http://www.w3.org/2000/svg" preserveAspectRatio="none">
<path fill-rule="evenodd" clip-rule="evenodd" d="M18.9992 9.38499C43.6027 5.59066 758.245 4.08409 981.862 14.6301L996.016 21.6608C998.961 31.8162 996.017 134.375 987.847 151.561C745.991 154.964 271.589 154.295 31.7284 150.668L17.5743 143.637C9.40475 113.059 13.8695 19.5962 19.0942 9.32919L18.9992 9.38499Z" fill="url(#paint0_linear_3628_504)"/>
<path fill-rule="evenodd" clip-rule="evenodd" d="M4.84502 2.35406C30.3035 -1.60767 767.745 3.24684 981.862 14.6298C984.807 24.7852 981.862 127.344 973.693 144.53C731.837 147.934 257.435 147.264 17.5743 143.637C7.88484 131.305 -1.13963 14.0718 4.84502 2.35406Z" fill="url(#paint1_radial_3628_504)"/>
<path fill-rule="evenodd" clip-rule="evenodd" d="M15.4831 154.072C249.074 155.188 754.065 150.612 985.376 152.453L999.91 159.484C1000.67 204.123 996.49 250.046 991.646 297.252C933.604 301.269 69.3449 297.196 27.8323 293.625L13.2982 286.594C6.36359 253.45 11.9683 169.64 15.4831 154.016V154.072Z" fill="url(#paint2_linear_3628_504)"/>
<path fill-rule="evenodd" clip-rule="evenodd" d="M1.04545 147.097C241.096 148.269 748.652 150.612 985.473 152.51C986.233 197.149 982.053 243.071 977.208 290.277C919.167 294.295 54.9073 290.277 13.3947 286.65C5.89016 260.815 -2.75433 163.948 1.04545 147.097Z" fill="url(#paint3_radial_3628_504)"/>
<path fill-rule="evenodd" clip-rule="evenodd" d="M21.7541 299.93C73.906 297.364 849.155 294.853 979.393 299.484L993.547 306.515C998.487 322.975 1001.53 411.863 998.012 443.892C756.061 441.492 259.43 440.432 16.5294 443.892L2.37519 436.861C0.760288 405.111 18.0493 312.485 21.7541 299.93Z" fill="url(#paint4_linear_3628_504)"/>
<path fill-rule="evenodd" clip-rule="evenodd" d="M7.59962 292.9C63.5513 290.11 903.112 294.351 979.392 299.484C984.332 315.945 987.372 404.833 983.857 436.861C741.906 434.462 245.276 433.402 2.37493 436.861C-2.18481 427.431 3.22988 307.631 7.59962 292.956V292.9Z" fill="url(#paint5_radial_3628_504)"/>
<path fill-rule="evenodd" clip-rule="evenodd" d="M31.6329 448.355C87.7746 445.231 869.009 438.702 975.782 441.325L989.936 448.355C995.256 495.729 996.491 543.158 995.921 590.531C601.314 599.515 381.972 598.789 18.9037 590.531L4.74949 583.501C3.03959 546.952 23.2734 466.992 31.6329 448.355Z" fill="url(#paint6_linear_3628_504)"/>
<path fill-rule="evenodd" clip-rule="evenodd" d="M17.4779 441.381C77.5144 438.033 927.24 438.144 975.877 441.381C981.196 488.754 982.431 536.183 981.861 583.556C596.184 591.647 433.554 582.217 4.84368 583.556C1.42388 552.365 8.54847 461.636 17.4779 441.381Z" fill="url(#paint7_radial_3628_504)"/>
<path style="mix-blend-mode:multiply" fill-rule="evenodd" clip-rule="evenodd" d="M180.584 96.041C202.528 92.7489 228.176 88.8988 255.82 84.2117L257.15 83.9885C283.083 79.6362 310.346 75.0606 337.61 71.7127C358.224 69.2017 378.837 67.3604 398.881 66.8582C419.115 66.356 438.779 67.193 457.398 69.9829C479.437 73.2751 502.045 79.8035 520.759 87.5596C539.758 95.4273 554.767 104.69 560.942 113.227C561.607 114.176 562.177 115.236 562.557 116.24C565.597 124.443 558.852 134.375 544.888 143.805C543.558 144.698 542.228 145.591 540.708 146.483C559.897 146.483 579.181 146.539 598.655 146.595C605.494 142.298 612.239 137.834 618.983 133.259C632.188 124.275 634.657 116.352 632.663 108.484C630.668 100.449 619.648 92.2467 596.85 83.2073C535.863 58.8231 468.417 47.4402 399.736 47.217C347.014 47.0496 297.902 54.3034 246.035 61.2783C154.271 73.6099 90.4344 89.0662 7.0293 90.7402C9.78414 116.296 13.5839 138.727 17.5737 143.749C63.836 144.419 135.557 145.033 222.857 145.479C199.298 142.187 177.639 139.397 159.4 137.165C132.042 133.817 112.568 131.808 106.013 131.529C99.7439 131.25 94.9941 130.078 92.0493 128.349C89.5795 126.898 88.2495 125.112 88.1545 123.048C88.1545 121.262 89.0095 119.309 91.0994 117.412C94.8991 113.897 102.879 110.158 115.228 107.145C128.527 103.909 151.231 100.505 180.584 96.0968V96.041Z" fill="url(#paint8_radial_3628_504)"/>
<g style="mix-blend-mode:multiply" opacity="0.5">
<path d="M375.417 91.9675C383.017 90.8516 390.617 90.0704 398.216 89.5682C405.056 89.066 412.085 88.8986 419.115 89.066C426.049 89.2334 432.984 89.6798 439.729 90.5168C444.288 91.0748 448.658 92.0791 452.838 93.3067C456.828 94.5343 460.627 95.9851 464.237 97.6032C468.132 99.2772 471.837 101.174 475.162 103.295C478.201 105.248 481.051 107.312 483.331 109.6C485.516 111.776 487.606 114.176 489.126 116.686C490.646 119.309 491.596 122.043 491.501 124.833C491.406 127.456 490.456 130.246 488.651 132.701C486.941 135.1 484.471 137.221 481.241 138.839C476.587 141.182 471.362 143.024 465.757 144.53C463.287 145.2 460.722 145.758 458.158 146.26C429.754 146.204 401.826 146.093 374.658 146.037C372.378 145.646 370.193 145.256 367.913 144.809C358.698 142.968 349.769 140.736 341.314 138.057C336.945 136.663 332.86 134.654 329.535 132.254C326.305 129.967 323.835 127.232 322.506 124.387C321.366 121.987 321.556 119.421 322.601 117.021C323.741 114.343 325.925 111.72 328.395 109.6C331.625 106.81 335.425 104.243 339.795 101.956C343.879 99.7794 348.534 97.938 353.379 96.5431C360.408 94.5343 367.818 93.0277 375.512 91.9117L375.417 91.9675ZM360.028 107.814C337.23 119.867 356.894 129.799 381.877 135.714C405.436 141.294 425.195 142.912 449.703 140.01C459.393 138.894 469.272 136.607 476.967 132.757C480.861 130.804 482.951 127.177 483.046 124.164C483.236 120.369 480.196 116.519 476.967 113.339C465.567 102.179 446.568 97.8264 425.859 97.3801C406.291 96.9337 375.038 99.7794 359.933 107.759L360.028 107.814ZM7.0291 90.6842C90.4342 89.066 154.27 73.5539 246.035 61.2223C297.997 54.2474 347.014 47.0494 399.736 47.161C468.417 47.3842 535.863 58.7114 596.849 83.1513C619.553 92.2465 630.667 100.449 632.662 108.428C634.657 116.296 632.187 124.219 618.983 133.203C612.239 137.779 605.494 142.242 598.654 146.539C608.059 146.539 617.463 146.539 626.868 146.539C631.237 143.693 635.702 140.736 640.072 137.779C656.316 126.73 664.77 116.352 662.111 105.806C657.361 86.7782 589.535 66.1884 552.867 57.6512C428.614 28.7473 367.438 34.8852 243.47 55.3076C158.45 69.369 77.23 81.0867 6.07915 81.1983V82.3701L6.17415 82.5375V82.7049L6.36414 84.2115V84.3789L6.45913 85.2717C6.45913 86.0528 6.64912 86.8898 6.74411 87.671V87.8384V87.8942V88.1174C6.74411 89.0102 6.9341 89.903 7.0291 90.74V90.6842ZM3.89428 52.8525C101.549 52.2387 178.304 41.9717 252.4 34.7178C438.304 16.4715 499.575 14.686 685.764 63.8449C720.437 72.9959 747.986 84.7695 763.09 93.6973C776.009 101.286 777.909 111.999 765.085 120.034C755.775 125.893 734.686 136.272 712.173 146.483C721.007 146.483 729.652 146.427 738.296 146.372C758.91 137.388 777.434 128.795 786.078 123.382C789.878 120.983 792.918 118.137 794.818 115.068C796.813 111.999 797.763 108.819 797.573 105.694C797.383 102.737 795.958 99.7236 793.583 96.9337C791.113 93.9763 787.693 91.2422 783.703 88.8986C766.699 78.8548 733.166 68.0298 695.549 58.0418C641.117 43.6456 577.566 30.8677 542.988 24.953C473.167 13.012 440.489 15.1882 369.718 19.4847C328.87 21.9956 290.017 25.79 250.5 29.6959C176.879 36.9498 100.504 44.4268 3.41931 44.092V44.2036V44.3152V44.4268V44.5384V44.65V44.7616V44.8732V44.9848V45.0964V45.208V46.8262V46.9378V47.0494V47.161V47.2726V47.3842V47.4958V47.6074V47.719C3.41931 48.2769 3.41931 48.8349 3.41931 49.3929V49.5045V49.6161V49.7277V49.8393V49.9509V50.0625V50.1741V50.2857V50.3973V50.5089V52.0155V52.1271H3.89428V52.8525ZM2.94434 19.6521C92.5241 18.2013 179.824 9.10607 267.694 1.51741C244.705 1.40581 222.666 1.29422 201.673 1.18262C136.032 6.03713 70.2004 9.83146 3.41931 10.2221V10.3336V10.7242V10.8358C3.41931 11.1706 3.41931 11.5054 3.41931 11.896V12.0076V12.2308H3.22932V12.3982C3.22932 12.7888 3.22932 13.1236 3.22932 13.5142V13.6816V13.849V14.0164V14.1838C3.22932 14.6302 3.22932 15.0766 3.22932 15.523H3.03933V15.6903V15.8577V16.0251V16.1925C3.03933 16.5831 3.03933 17.0295 3.03933 17.4759V17.6433V17.8107V17.9781V18.1455C3.03933 18.5919 3.03933 19.0383 3.03933 19.4847V19.6521V19.8195H2.94434V19.6521ZM561.607 4.36316C637.127 20.3775 724.047 44.9848 788.168 59.3251C809.447 64.1239 855.424 73.6655 892.567 85.2717C975.117 110.995 947.189 123.494 871.763 142.689C867.774 143.693 863.784 144.698 859.794 145.702C878.603 145.535 896.652 145.423 913.941 145.2C924.865 142.298 935.505 139.285 945.479 136.16C978.537 125.893 982.052 115.124 971.507 105.025C949.089 83.6535 840.415 60.2179 799.568 51.0669C760.525 42.3065 721.862 33.0438 683.104 23.9486C658.216 18.0897 631.047 11.2264 603.024 4.86535C589.25 4.64215 575.381 4.47476 561.512 4.25156L561.607 4.36316ZM711.793 6.76251C794.818 24.116 878.603 40.5767 963.243 55.196C969.513 56.2562 975.972 57.3164 982.717 58.3208C982.717 55.4192 982.907 52.5735 982.907 49.8393C978.727 49.1697 974.547 48.5001 970.557 47.7748C899.502 35.499 828.826 21.9398 758.815 7.6553C743.521 7.3205 727.847 7.04151 711.888 6.70672L711.793 6.76251ZM972.647 14.1838C975.782 14.5744 978.917 14.965 981.957 15.2998C981.957 15.0766 981.862 14.8534 981.767 14.686C978.822 14.5186 975.782 14.3512 972.552 14.2396L972.647 14.1838ZM115.228 107.089C102.878 110.102 94.8989 113.841 91.0992 117.356C89.0093 119.253 88.0593 121.15 88.1543 122.992C88.1543 125.001 89.5792 126.842 92.0491 128.293C94.9939 130.022 99.7436 131.194 106.013 131.473C112.663 131.808 132.042 133.761 159.4 137.109C177.639 139.341 199.298 142.131 222.856 145.423C241.38 145.535 260.569 145.59 280.423 145.702C273.393 144.363 266.174 143.079 258.764 141.963C230.361 137.611 204.428 133.984 183.529 131.25C169.375 129.409 105.348 123.438 143.916 112.725C155.505 109.488 176.594 106.308 203.668 101.9C251.26 94.1995 300.467 82.0911 348.059 75.8416C366.773 73.3865 385.487 71.6009 403.726 71.0987C421.775 70.5965 439.254 71.3777 455.688 74.0561C475.162 77.1808 496.725 85.2159 513.254 92.5813C543.938 106.252 562.556 119.03 534.058 139.843C530.923 142.075 527.504 144.307 523.514 146.539C529.308 146.539 535.008 146.539 540.803 146.539C542.228 145.646 543.653 144.753 544.983 143.861C558.947 134.375 565.691 124.498 562.651 116.296C562.271 115.236 561.702 114.231 561.037 113.283C554.957 104.746 539.948 95.4829 520.854 87.6152C502.14 79.8592 479.531 73.3307 457.493 70.0385C438.874 67.2486 419.21 66.4116 398.976 66.9138C378.932 67.416 358.318 69.2574 337.705 71.7683C310.441 75.1162 283.178 79.6918 257.244 84.0441L255.914 84.2673C228.271 88.8986 202.623 92.7487 180.679 96.0967C151.326 100.505 128.622 103.909 115.323 107.145L115.228 107.089Z" fill="#B7805C"/>
</g>
<path style="mix-blend-mode:multiply" opacity="0.5" fill-rule="evenodd" clip-rule="evenodd" d="M982.052 15.2439C978.917 14.9091 975.878 14.5185 972.743 14.128C921.921 11.617 846.115 9.44084 758.815 7.65527C828.826 21.9398 899.407 35.499 970.558 47.7747C974.643 48.5001 978.727 49.1697 982.907 49.8393C983.192 33.0438 982.907 19.5405 982.052 15.2439Z" fill="url(#paint9_radial_3628_504)"/>
<path style="mix-blend-mode:multiply" fill-rule="evenodd" clip-rule="evenodd" d="M742.287 272.924C665.721 237.714 587.731 203.231 507.745 170.588C490.551 163.558 470.888 156.471 450.844 149.273C367.059 148.827 284.129 148.436 208.418 148.045C216.872 149.217 225.327 150.389 233.876 151.617C366.869 170.086 451.509 181.581 560.752 232.19C594.38 247.758 622.404 259.643 660.022 271.584C679.59 277.778 698.019 284.418 716.353 291.281C738.582 291.337 760.811 291.393 782.944 291.449C770.12 285.701 756.726 279.564 742.287 272.868V272.924Z" fill="url(#paint10_radial_3628_504)"/>
<path style="mix-blend-mode:multiply" fill-rule="evenodd" clip-rule="evenodd" d="M535.2 280.68C395.368 238.049 320.322 188.388 150.187 185.542C90.4356 184.538 56.6176 182.641 0.190918 166.906C0.285912 173.992 0.760884 182.362 1.33085 191.401C131.473 218.687 229.317 212.158 379.029 256.351C395.273 261.15 411.517 265.949 428.236 269.966C449.99 275.156 476.018 282.856 503.091 290.612C524.655 290.723 546.504 290.779 568.543 290.835C557.333 287.431 546.219 284.028 535.294 280.68H535.2Z" fill="url(#paint11_radial_3628_504)"/>
<g style="mix-blend-mode:multiply" opacity="0.5">
<path d="M980.437 257.188C945.289 244.243 913.561 227.503 886.488 206.69C869.579 193.689 863.404 183.757 865.779 175.61C868.154 167.631 874.804 160.488 892.473 154.295C894.847 153.458 897.317 152.621 899.692 151.784C887.058 151.672 873.949 151.616 860.555 151.505C847.16 157.643 838.611 164.394 836.141 172.485C830.346 191.68 884.493 224.211 915.081 239.277C938.165 250.66 959.254 259.811 979.487 267.12C979.772 263.772 980.152 260.369 980.437 257.021V257.188ZM977.398 287.654C919.831 272.756 866.729 249.767 790.544 208.643C762.235 193.354 742.096 176.837 732.312 165.399C728.132 160.488 727.087 155.411 729.177 150.835L704.479 150.668C704.099 152.565 704.194 154.518 704.669 156.471C705.429 159.763 707.233 163.055 709.798 166.068C720.723 178.902 747.036 195.642 777.909 212.326C822.462 236.431 876.609 260.592 906.722 272.812C926.101 280.679 942.63 286.427 958.494 290.946C967.328 290.779 973.788 290.556 977.208 290.333L977.493 287.71L977.398 287.654ZM883.163 291.672C817.712 261.875 744.946 220.305 689.565 193.689C671.991 185.263 633.993 167.854 604.734 150.11L578.801 149.942C610.909 169.528 653.087 189.392 673.985 199.436C706.759 215.227 738.962 231.353 771.26 247.367C798.713 260.982 829.206 277.108 861.029 291.616H878.793C880.218 291.616 881.643 291.616 883.068 291.616L883.163 291.672ZM804.698 291.504C786.174 282.856 766.795 273.537 744.756 263.382C671.041 229.456 595.9 196.256 518.859 164.841C506.415 159.763 492.546 154.63 478.202 149.44L450.939 149.273C470.982 156.471 490.646 163.557 507.84 170.588C587.825 203.23 665.816 237.658 742.381 272.923C756.821 279.563 770.31 285.757 783.039 291.504H804.698ZM152.561 147.822C178.495 150.891 204.998 153.904 231.406 157.587C362.879 175.833 444.384 191.01 552.298 241.006C586.401 256.797 614.899 268.906 652.992 280.958C663.631 284.362 673.985 287.766 683.96 291.225C694.694 291.225 705.524 291.281 716.353 291.337C698.019 284.418 679.59 277.834 660.021 271.64C622.404 259.699 594.38 247.814 560.752 232.246C451.603 181.636 366.868 170.142 233.876 151.672C225.327 150.5 216.872 149.329 208.418 148.101L152.561 147.822ZM0.0949944 166.849C56.5217 182.585 90.3397 184.538 150.091 185.486C320.321 188.332 395.272 237.993 535.104 280.624C546.123 283.972 557.237 287.375 568.352 290.779C581.271 290.779 594.19 290.891 607.204 290.891C585.356 283.916 563.697 277.108 542.323 270.58C423.96 234.478 287.358 180.576 151.801 176.224C91.0047 174.271 59.0865 171.816 0 154.741H0.189989C0.189989 155.076 0.189989 155.411 0.189989 155.69V155.857V156.024V156.192C0.189989 156.582 0.189989 156.973 0.189989 157.364V157.531V157.698V157.866C0.189989 158.256 0.189989 158.703 0.189989 159.149V159.317V159.484H0.0949944C0.0949944 159.93 0.0949944 160.377 0.0949944 160.823V161.214V161.381C0.0949944 161.772 0.0949944 162.162 0.0949944 162.553V162.776V162.999V163.223C0.0949944 163.669 0.0949944 164.171 0.0949944 164.673V164.897V165.12V165.343C0.0949944 165.789 0.0949944 166.18 0.0949944 166.626V166.849ZM2.08988 203.063C109.339 228.954 204.618 221.811 319.181 247.814C369.623 259.253 420.73 275.267 471.837 290.444C482.192 290.444 492.546 290.556 502.995 290.556C475.922 282.8 449.894 275.099 428.14 269.91C411.421 265.893 395.177 261.094 378.933 256.295C229.222 212.158 131.377 218.687 1.23493 191.345V191.513V192.238V192.405V192.573V193.466V193.633V193.8V193.968V194.861V195.028V195.195V195.363V195.53V195.921V196.088V196.256V196.423V197.539V197.706V197.874V198.041V198.208V198.376V198.543V198.711V198.878V199.045L1.32992 200.161V200.329V200.496V200.664V201.222V201.389V201.556V202.505V202.672H2.08988V203.063ZM5.41468 237.658C37.3328 244.131 72.3857 248.762 106.394 251.05C230.171 259.42 278.239 273.37 347.205 289.83C362.879 289.886 378.838 289.998 395.177 290.054C391.662 289.328 388.052 288.603 384.537 287.933C294.768 269.743 241.476 255.96 109.814 242.345C73.3357 238.551 38.6627 232.692 4.08476 225.885V226.052V226.22V226.387V226.554V227.838L4.27475 228.005V228.173V228.34V228.507V228.675V228.842V229.01C4.27475 229.623 4.36974 230.237 4.46474 230.851V231.018V231.186V231.353V231.52V231.688L4.65473 233.362V233.529V233.697V233.864V234.031V234.199V234.366V234.534L4.84472 235.817V235.984V236.152V236.319V236.487V236.877V237.045V237.212L5.41468 237.658ZM8.83448 263.94C50.727 271.082 94.0445 278.336 138.122 284.809C147.146 286.148 156.171 287.431 165.195 288.714C188.184 288.882 213.262 289.049 240.146 289.217C162.82 278.057 84.64 267.343 7.40956 254.231V254.398L7.59955 255.626V255.793V255.96V256.407V256.574V256.742L7.78954 258.137V258.304V258.471V259.085L7.88454 259.253V259.42L8.07453 260.313V260.48V260.648L8.16952 261.54V261.708V261.875V262.043V262.489V262.656V262.824V262.991V263.158V264.051L8.35951 264.219L8.83448 263.94ZM13.1092 285.98L19.3789 286.929C29.5433 287.264 50.2521 287.598 79.6053 287.933C56.6167 284.306 33.818 280.624 10.9244 276.718V276.885V277.052C10.9244 277.443 11.1143 277.834 11.1143 278.224V278.392V278.559V278.726C11.2093 279.173 11.3043 279.563 11.3993 280.01V280.177V280.345V280.512C11.4943 280.903 11.5893 281.293 11.6843 281.684V281.851V282.019V282.186C11.7793 282.577 11.8743 282.967 11.9693 283.302V283.414V283.525C12.0643 283.916 12.1593 284.306 12.2543 284.697V284.809V284.92C12.2543 285.255 12.4443 285.59 12.5393 285.924V286.036L13.1092 285.98ZM983.287 222.202C979.297 219.245 975.593 216.232 972.268 213.386C950.134 194.47 939.21 178.679 977.968 164.004C980.342 163.111 982.907 162.218 985.567 161.381C985.567 158.703 985.567 156.024 985.567 153.346C979.867 154.797 974.548 156.359 969.798 158.033C951.179 164.506 939.305 172.82 937.785 181.246C937.595 182.306 937.595 183.422 937.785 184.482C939.02 193.856 948.424 205.574 962.483 216.734C968.563 221.532 975.403 226.275 982.907 230.683C983.097 227.838 983.287 225.048 983.477 222.202H983.287Z" fill="#B7805C"/>
</g>
<path style="mix-blend-mode:multiply" fill-rule="evenodd" clip-rule="evenodd" d="M915.079 239.388C884.491 224.323 830.344 191.792 836.139 172.597C838.609 164.506 847.063 157.699 860.553 151.617C819.705 151.338 775.533 151.059 729.175 150.835C727.086 155.411 728.226 160.489 732.31 165.399C742 176.838 762.138 193.354 790.542 208.643C866.727 249.767 919.829 272.756 977.396 287.655C978.061 280.847 978.821 274.04 979.391 267.288C959.157 259.922 938.163 250.827 914.984 239.444L915.079 239.388Z" fill="url(#paint12_radial_3628_504)"/>
<g style="mix-blend-mode:multiply" opacity="0.5">
<path d="M357.653 434.685C408.285 429.886 464.332 423.637 511.639 428.436C524.939 429.775 539.378 431.951 554.767 434.629C568.256 434.629 581.84 434.629 595.424 434.629C567.211 429.049 538.998 424.697 512.589 423.302C455.308 420.177 387.672 427.208 330.2 431.895C318.136 432.899 306.166 433.848 294.102 434.852C315.001 434.852 336.185 434.741 357.653 434.741V434.685ZM141.351 423.358C94.5188 425.032 47.6866 425.422 0.854319 425.534C0.854319 425.869 0.854319 426.259 0.854319 426.594V427.32C0.854319 427.654 0.854319 427.933 0.854319 428.212C0.854319 428.436 0.854319 428.659 0.854319 428.882C0.854319 429.161 0.854319 429.44 0.854319 429.775V430.444C0.854319 430.444 0.854319 430.891 0.949314 431.114C0.949314 431.393 0.949314 431.616 0.949314 431.839C0.949314 432.007 0.949314 432.174 0.949314 432.342C0.949314 432.62 0.949314 432.844 0.949314 433.067C0.949314 433.234 0.949314 433.402 0.949314 433.513C0.949314 433.736 0.949314 433.96 1.04431 434.127V434.462C1.04431 434.462 1.1393 434.852 1.2343 435.02C1.2343 435.131 1.2343 435.243 1.2343 435.355L140.781 423.302L141.351 423.358ZM946.619 434.908C935.409 432.844 923.915 430.556 911.946 428.045C872.903 419.731 840.795 413.816 799.947 409.576C694.694 398.639 616.133 379.053 502.71 377.101C430.324 375.873 349.484 383.964 277.003 389.934C187.993 397.244 99.5535 404.554 0.66433 404.721V404.833H0.569336V405C0.569336 405.725 0.569336 406.451 0.569336 407.176V407.623V407.79V409.464V409.576V410.413V410.524V411.473V411.584V411.696V412.923V413.035V413.147V413.426V413.537C100.123 413.314 188.943 406.004 278.238 398.695C350.149 392.78 430.704 381.564 502.425 382.792C566.926 383.908 628.293 393.84 690.229 403.828C726.612 409.743 761.285 415.267 798.428 419.117C834.145 422.8 863.024 427.822 895.987 434.629C912.991 434.629 929.9 434.629 946.619 434.685V434.908ZM985.282 398.081C960.678 394.733 934.84 391.497 907.101 388.93C795.388 378.44 673.225 367.001 568.351 361.588C500.335 358.073 427.854 362.928 360.218 368.061C332.195 370.181 303.887 372.581 275.768 374.98C186.568 382.569 99.4585 389.99 0.759325 389.488V389.599V389.711V389.823V389.934V391.999V392.11V392.222V392.334V392.613V392.724V394.342V394.454V394.566V394.677V394.789V394.9V395.012V395.124V395.235V395.347V396.965V397.077V397.188V397.3V397.411V397.523V397.635C100.218 398.137 187.613 390.715 277.193 383.071C366.203 375.482 481.526 362.37 567.686 366.833C672.18 372.246 794.248 388.26 905.771 398.75C931.325 401.15 958.018 404.107 985.282 407.065C985.282 403.94 985.282 400.759 985.282 397.467V398.081ZM984.997 371.074C937.309 366.833 889.432 362.593 843.74 361.644C807.832 360.863 772.019 359.468 736.111 356.79C710.938 354.948 689.374 353.107 669.52 351.489C610.054 346.523 565.216 342.784 507.175 343.844C445.903 344.96 385.107 349.759 324.5 354.502C217.537 362.928 109.053 372.023 1.32929 373.306V373.474V373.641V373.808V373.976V374.143V375.203V375.371V375.65V375.817V375.985V376.431V376.598V376.766V376.933V377.101V377.379V377.547V378.161V378.328V378.495V378.663V378.83V378.998V380.058V380.225V380.393V380.56V380.727V381.006V381.174V381.341V381.509V381.676V381.843V382.011V382.178V383.238V383.406C109.908 381.899 223.046 370.293 326.02 360.807C386.152 355.227 446.568 349.982 507.365 348.866C620.503 346.802 714.452 368.898 843.36 369.958C887.722 370.349 941.964 375.985 985.472 378.886C985.472 376.431 985.377 374.032 985.282 371.576L984.997 371.074ZM984.047 345.797C963.148 345.853 942.154 346.188 921.16 346.411C838.895 347.304 771.449 344.012 689.849 337.651C635.797 333.466 580.985 329.281 526.458 328.89C441.439 328.276 349.769 335.921 265.129 341.557C178.589 347.304 94.1389 352.94 2.18424 355.283V355.451V355.618V355.785V355.953V356.12V356.287V356.455V356.622V356.79V356.957V357.961V358.129V358.296V358.464V358.631V359.301V359.468V359.635V359.803V359.97V360.138V360.975V361.142V361.309V361.477V361.644V361.812V361.979V362.146V362.481V362.649V362.816V362.983V363.151V363.82V363.988V364.155V364.323V364.49V364.657V365.16V365.327V365.494V365.662V365.829V365.996C174.504 361.198 370.383 334.693 526.933 335.809C580.985 336.2 635.607 339.157 689.184 343.286C771.259 349.647 838.42 356.511 921.16 355.618C942.534 355.395 963.813 355.283 985.092 355.283C984.997 352.047 984.807 348.81 984.712 345.63L984.047 345.797ZM982.907 326.547C901.211 327.942 816.571 326.268 724.712 318.009C658.501 312.039 591.625 307.017 525.984 307.017C422.155 307.017 310.821 313.657 206.802 320.074C139.546 324.259 73.2401 328.388 3.60916 329.56V329.727V329.895V330.062V330.229V331.401V331.569V331.736V331.903V332.071V332.238V332.406V332.573V332.74V332.908V333.075V334.135V334.303V334.47V334.637V334.805V334.972V335.14V335.307V335.474V335.642V335.809V335.977V336.869V337.037V337.204V337.372V337.539V337.706V337.874V338.041V338.209V338.376V338.543V339.827V339.994V340.162V340.329V340.496C69.8203 341.445 137.551 337.148 208.417 330.508C311.391 320.855 423.2 312.653 526.648 312.653C630.097 312.653 740.101 327.049 846.875 332.461C892.377 334.749 938.164 335.363 984.142 334.861C983.952 331.903 983.762 329.058 983.572 326.323L982.907 326.547ZM980.437 304.506C963.528 304.618 946.619 304.673 929.805 304.618C855.614 304.283 781.614 301.604 702.768 294.909C674.745 294.63 645.677 294.406 615.943 294.183C632.377 295.522 649.951 297.252 669.045 299.373C777.719 311.593 881.073 314.494 981.672 313.322C981.292 309.919 980.912 306.961 980.437 304.562V304.506ZM233.116 292.174C157.215 296.862 82.2645 302.944 5.98402 302.441V302.553V303.446L5.88902 303.502V303.669V303.892V304.06V304.171V304.283V305.12L5.79403 305.176V305.287V306.18L5.69903 306.236C96.7987 305.343 179.729 302.33 267.599 297.643C298.662 295.969 330.295 294.295 362.593 292.732L365.918 292.565C319.371 292.342 274.628 292.23 233.211 292.119L233.116 292.174Z" fill="#B7805C"/>
</g>
<path style="mix-blend-mode:multiply" fill-rule="evenodd" clip-rule="evenodd" d="M907.197 388.93C934.935 391.553 960.678 394.733 985.377 398.081C985.377 391.72 985.377 385.08 985.187 378.384C941.775 375.482 887.533 369.791 843.075 369.456C714.168 368.396 620.219 346.244 507.08 348.364C446.284 349.48 385.867 354.781 325.736 360.305C222.762 369.791 109.624 381.453 1.04492 382.904V384.912V385.024V385.136V387.591V387.702V387.814V388.539V388.651V388.763V388.874V389.097V389.209V389.321V389.432V389.544V389.655C99.6491 390.158 186.854 382.736 276.054 375.148C304.172 372.748 332.48 370.349 360.504 368.229C428.14 363.095 500.621 358.241 568.637 361.756C673.51 367.168 795.673 378.607 907.387 389.097L907.197 388.93Z" fill="url(#paint13_radial_3628_504)"/>
<path style="mix-blend-mode:multiply" fill-rule="evenodd" clip-rule="evenodd" d="M983.477 335.084C937.499 335.586 891.807 334.972 846.21 332.684C739.436 327.272 633.327 312.876 525.984 312.876C418.64 312.876 310.726 321.078 207.752 330.731C136.792 337.371 69.1556 341.668 2.94448 340.719V342.059V342.282V342.505V342.728L2.75449 345.183V345.351V345.407V345.63L2.5645 348.085V348.308V348.531L2.46951 350.819V351.042V351.265V351.489V351.712L2.37451 353.832V354.892V355.116C94.3291 352.772 178.779 347.192 265.319 341.389C349.959 335.753 441.724 328.109 526.649 328.723C581.175 329.113 635.987 333.298 690.039 337.483C771.639 343.788 839.18 347.136 921.35 346.244C942.344 346.02 963.338 345.741 984.237 345.63C984.047 341.947 983.857 338.376 983.667 334.916L983.477 335.084Z" fill="url(#paint14_radial_3628_504)"/>
<g style="mix-blend-mode:multiply" opacity="0.5">
<path d="M537.099 585.063C537.099 585.063 538.049 584.561 538.524 584.282C544.793 580.878 551.443 577.809 558.378 575.131C563.127 573.289 568.352 571.95 573.767 570.946C578.991 569.997 584.501 569.327 589.916 568.825C595.71 568.323 601.695 568.1 607.68 568.156C613.189 568.267 618.604 568.658 623.924 569.439C629.053 570.164 634.278 571.225 639.313 572.62C644.537 574.07 649.287 575.968 653.277 578.478C656.602 580.543 659.547 583.054 661.636 585.732H649.667C648.432 584.337 646.912 583.11 645.297 582.105C639.883 578.757 631.618 576.972 624.209 575.856C600.46 572.396 579.656 576.86 562.272 585.174L537.289 585.063H537.099ZM420.826 584.449C432.985 575.242 445.999 566.426 460.533 558C520 523.405 594.665 499.132 683.01 489.256C715.878 485.573 737.442 487.024 750.836 492.939C764.135 498.742 773.635 506.777 775.345 521.229C778.195 543.883 779.049 565.645 775.915 586.29C782.659 586.29 789.404 586.346 796.149 586.346C797.668 586.346 799.188 586.346 800.708 586.346C804.318 563.748 803.368 539.642 800.233 514.589C798.048 496.845 790.069 483.676 772.305 475.92C740.292 461.914 651.757 478.543 607.775 489.702C501.666 516.653 448.944 542.767 399.737 584.337C406.767 584.337 413.796 584.393 420.826 584.449ZM361.834 584.114C455.214 510.515 516.58 478.654 681.775 439.093C669.711 439.093 657.457 439.093 645.012 439.037C607.3 449.192 573.482 459.236 551.253 466.434C473.643 491.488 448.659 509.846 394.132 549.351C378.173 560.902 363.164 572.452 348.63 584.058H361.834V584.114ZM881.833 439.93C881.453 456.111 875.184 488.084 868.059 513.417C860.08 541.707 858.465 563.971 852.575 585.732C857.42 585.677 862.36 585.621 867.299 585.565C874.139 563.748 878.604 540.368 886.203 513.473C892.948 489.702 901.497 459.403 904.062 440.153C897.033 440.097 889.623 440.041 881.833 439.985V439.93ZM281.944 583.779C287.549 579.371 293.153 574.963 298.853 570.555C342.17 536.908 387.768 493.05 445.619 469.113C470.413 458.846 502.521 448.746 538.239 438.925C526.459 438.925 514.68 438.925 502.996 438.925C479.342 446.57 457.399 454.828 438.59 463.979C383.018 491.042 333.716 532.5 289.733 566.649C282.419 572.341 275.199 577.976 267.885 583.612C272.539 583.612 277.194 583.612 281.944 583.612V583.779ZM976.448 446.793C973.313 451.759 970.273 456.669 967.518 461.524C945.67 499.635 940.635 543.548 925.246 584.672C930.376 584.561 935.6 584.505 940.73 584.393C945.1 573.847 948.995 563.301 952.889 552.755C960.964 530.826 969.608 510.404 979.963 489.647C979.108 475.362 977.968 461.077 976.448 446.849V446.793ZM222.952 583.612C280.899 531.663 335.996 479.547 429.755 439.093C423.771 439.093 417.881 439.093 411.991 439.093C368.579 460.073 328.301 486.131 279.759 524.354C255.06 543.827 231.312 563.748 207.278 583.5C212.503 583.5 217.728 583.5 222.952 583.5V583.612ZM341.03 439.26C282.514 474.413 229.222 518.383 179.255 557.275C168.046 565.98 156.836 574.74 145.532 583.445C153.416 583.445 161.396 583.445 169.375 583.445C177.545 577.139 185.62 570.778 193.789 564.473C245.846 523.963 297.618 475.139 358.794 439.204C352.81 439.204 346.92 439.204 341.03 439.204V439.26ZM295.433 439.372C269.12 457.451 244.136 476.199 220.102 494.445C198.444 510.962 176.975 527.869 155.696 544.609C139.167 557.61 122.733 570.555 106.109 583.389C113.804 583.389 121.593 583.389 129.383 583.389C142.967 572.843 156.456 562.241 169.945 551.583C213.263 517.49 262.85 475.697 314.812 439.316C308.257 439.316 301.893 439.316 295.433 439.316V439.372ZM249.741 439.539C221.622 459.682 194.739 480.384 167.856 501.03C132.138 528.483 96.4198 556.159 59.752 583.389C66.7815 583.389 73.8111 583.389 80.7457 583.389C114.279 557.108 146.387 530.715 177.64 505.549C205.378 483.23 233.307 460.91 262.85 439.483H249.741V439.539ZM205.568 439.651C167.666 466.49 131.188 494.278 95.5648 520.559C66.8765 541.707 38.4732 562.632 9.40492 583.5H10.1649H10.5448H10.9248H11.3048H11.6848H12.0648H12.4447H12.8247H13.2047H13.5847H13.9646H14.3446H14.7246H15.1046H15.4846H15.8645C21.9442 583.5 28.0238 583.5 34.0085 583.5C98.3197 534.62 161.396 484.178 225.042 439.651C218.393 439.651 211.838 439.651 205.473 439.706L205.568 439.651ZM140.782 439.985C96.3248 470.452 53.1023 501.699 11.4948 531.942L4.5602 536.964V537.355C4.5602 538.024 4.5602 538.638 4.46521 539.308V539.698V540.089V541.651V542.042V542.432V542.823V544.385V545.111V545.501V546.952V547.343V547.733V548.124V549.24V550.746V551.639C4.46521 552.197 4.46521 552.755 4.46521 553.313V553.927C4.46521 554.541 4.46521 555.099 4.46521 555.712V556.271C4.46521 556.884 4.46521 557.554 4.46521 558.168L141.257 440.153L140.782 439.985ZM3.99023 558.447C3.99023 559.116 3.99023 559.786 3.99023 560.4C3.99023 559.73 3.99023 559.116 3.99023 558.447ZM3.99023 560.4C12.1598 553.983 20.3293 547.51 28.4988 540.87C69.8214 507.391 113.994 472.907 160.351 439.874C153.701 439.874 147.147 439.93 140.877 439.985L3.99023 560.4ZM67.2565 440.488C50.9175 451.926 35.0534 463.142 19.3793 474.19C16.0545 476.59 12.6347 478.933 9.30992 481.333V481.556L9.21493 482.281V482.504L9.02494 483.676V483.899L8.83495 484.848V485.071L8.64496 486.466V487.303L8.54997 487.526L8.35998 489.033V489.926L8.26498 489.981V490.205L8.07499 491.432V491.655V492.325L7.79001 494.166V494.445L7.69502 495.115V495.45V496.733L7.50503 497.012C15.4846 491.488 23.4641 485.908 31.4436 480.272C50.1575 467.104 69.1564 453.712 88.4403 440.153C80.8407 440.209 73.7161 440.264 67.2565 440.32V440.488ZM726.328 586.011C727.562 579.594 727.753 573.457 727.088 567.821C725.188 552.588 716.543 540.647 701.819 535.123C699.919 534.397 698.019 533.839 696.024 533.337C678.26 529.096 651.757 528.706 623.829 531.552C596.375 534.342 567.307 540.2 543.463 548.459C523.325 555.434 505.181 564.696 488.557 575.354C483.902 578.367 479.247 581.492 474.783 584.672H486.847C490.742 581.938 494.731 579.204 498.816 576.526C513.635 566.984 529.784 558.837 547.833 552.811C569.207 545.669 599.51 541.651 624.494 539.642C670.946 535.904 705.809 537.466 711.699 569.83C712.648 574.852 712.743 580.208 711.984 585.9H726.233L726.328 586.011Z" fill="#B7805C"/>
</g>
<path style="mix-blend-mode:multiply" fill-rule="evenodd" clip-rule="evenodd" d="M886.202 513.417C878.602 540.312 874.138 563.692 867.298 585.509C886.012 585.23 905.296 584.951 925.15 584.617C940.634 543.548 945.573 499.579 967.422 461.468C970.177 456.614 973.217 451.703 976.352 446.737C976.162 444.952 975.972 443.11 975.782 441.325C968.467 440.823 942.629 440.432 904.061 440.097C901.401 459.348 892.852 489.647 886.202 513.417ZM394.131 549.352C448.753 509.846 473.736 491.488 551.252 466.434C573.48 459.292 607.298 449.192 645.011 439.037C624.397 439.037 603.309 438.981 582.03 438.981C567.306 438.981 552.677 438.981 538.143 438.981C502.425 448.802 470.317 458.901 445.523 469.168C387.671 493.106 342.074 536.964 298.757 570.611C293.152 575.019 287.452 579.427 281.848 583.835C303.886 583.947 326.115 584.003 348.534 584.114C363.163 572.452 378.172 560.902 394.036 549.407L394.131 549.352Z" fill="url(#paint15_radial_3628_504)"/>
<path style="mix-blend-mode:multiply" fill-rule="evenodd" clip-rule="evenodd" d="M711.698 569.885C705.808 537.522 671.04 535.96 624.493 539.698C599.51 541.707 569.111 545.725 547.833 552.867C529.784 558.893 513.635 567.04 498.815 576.581C494.731 579.204 490.741 581.938 486.846 584.784C503.565 584.895 520.284 584.951 537.098 585.063C537.573 584.784 538.048 584.561 538.523 584.282C544.793 580.878 551.442 577.809 558.377 575.131C563.127 573.289 568.351 571.95 573.766 570.946C578.991 569.997 584.5 569.328 589.915 568.825C595.71 568.323 601.694 568.1 607.679 568.156C613.189 568.267 618.603 568.658 623.923 569.439C629.053 570.164 634.278 571.225 639.312 572.62C644.537 574.07 649.287 575.968 653.276 578.479C656.601 580.543 659.546 583.054 661.636 585.732C678.45 585.844 695.359 585.9 712.173 586.011C712.933 580.32 712.743 574.907 711.888 569.941L711.698 569.885Z" fill="url(#paint16_radial_3628_504)"/>
<path style="mix-blend-mode:screen" fill-rule="evenodd" clip-rule="evenodd" d="M15.5791 11.7843C16.4341 11.7843 17.289 11.7843 18.144 11.7843C170.99 9.3292 330.391 14.1279 482.097 13.0119C618.889 12.0075 755.681 11.4496 893.328 11.1148C494.351 1.01515 21.2788 -2.94658 4.84475 2.35432C2.46989 6.98564 2.46989 28.1892 3.89481 52.8524V54.4148L3.9898 54.4706V54.5264C3.9898 55.2517 3.9898 55.9213 4.0848 56.6467V56.7583H4.17979V56.8141C5.6997 80.0823 8.35955 105.694 11.5894 123.215C11.5894 100.84 11.9693 79.0779 12.9193 57.1489C47.5922 57.9301 83.8801 56.1445 124.538 51.9596C163.485 47.9421 202.053 42.8086 240.811 38.1773C278.619 33.6575 314.337 29.64 351.479 25.9573C322.126 28.0219 289.733 31.035 252.4 34.6619C180.679 41.6926 106.394 51.569 13.0143 52.7408C13.5842 39.1816 14.4392 25.5667 15.5791 11.7286V11.7843Z" fill="url(#paint17_linear_3628_504)"/>
<path style="mix-blend-mode:screen" fill-rule="evenodd" clip-rule="evenodd" d="M24.6033 147.152C16.0538 147.152 8.1693 147.097 0.949729 147.041C-1.9001 160.042 2.46964 220.137 8.07431 259.029C8.73927 227.112 9.40423 196.255 13.964 164.283C14.4389 160.879 15.0089 157.475 15.5789 154.071C15.5789 153.904 15.5789 153.737 15.5789 153.569C107.438 153.569 199.108 153.96 290.683 154.071C357.369 154.127 424.055 154.071 490.646 153.625C498.72 153.569 506.89 153.513 514.964 153.458C588.87 152.844 663.821 152.955 737.726 150.891C451.223 149.942 159.875 147.822 24.5083 147.208L24.6033 147.152Z" fill="url(#paint18_linear_3628_504)"/>
<path style="mix-blend-mode:screen" fill-rule="evenodd" clip-rule="evenodd" d="M0.664639 414.151C3.0395 400.536 5.79434 386.195 8.45418 371.855C10.6391 360.082 12.6339 348.252 14.2488 336.869C15.6738 326.379 16.8137 316.168 17.1937 306.626C17.3837 303.334 16.1487 300.153 13.4889 296.973C47.4019 297.14 81.3149 297.419 115.228 297.419C218.487 297.308 322.126 297.643 425.765 297.475C442.009 297.475 458.348 297.475 474.592 297.364C484.946 297.364 495.301 297.308 505.56 297.252C606.824 296.861 707.708 298.2 808.592 295.913C474.117 292.565 112.948 290.389 25.4582 292.453C16.4337 292.565 10.3541 292.676 7.50424 292.844C4.17943 304.004 0.189667 376.152 0.569645 414.095H0.664639V414.151Z" fill="url(#paint19_linear_3628_504)"/>
<path style="mix-blend-mode:screen" fill-rule="evenodd" clip-rule="evenodd" d="M11.2091 513.919C17.0038 485.183 23.5584 472.739 21.6585 443.724C21.6585 443.445 21.6585 443.222 21.6585 442.943C29.0681 443.11 36.3826 443.278 43.7922 443.445C179.159 446.347 313.481 444.617 448.088 441.715C487.606 440.878 527.124 439.874 566.737 438.925C287.928 439.148 42.7473 439.93 17.4787 441.325C17.1938 442.05 16.8138 442.887 16.5288 443.78C9.5942 463.421 4.08452 523.182 3.89453 561.125C6.0794 545.334 7.97929 529.543 11.2091 513.863V513.919Z" fill="url(#paint20_linear_3628_504)"/>
<defs>
<linearGradient id="paint0_linear_3628_504" x1="505.085" y1="153.793" x2="505.085" y2="6.53924" gradientUnits="userSpaceOnUse">
<stop stop-color="#692705"/>
<stop offset="1" stop-color="#823B00"/>
</linearGradient>
<radialGradient id="paint1_radial_3628_504" cx="0" cy="0" r="1" gradientUnits="userSpaceOnUse" gradientTransform="translate(102.119 -64.1583) scale(898.267 527.635)">
<stop stop-color="#F59547"/>
<stop offset="1" stop-color="#A14C1F"/>
</radialGradient>
<linearGradient id="paint2_linear_3628_504" x1="504.989" y1="298.926" x2="504.989" y2="152.007" gradientUnits="userSpaceOnUse">
<stop stop-color="#692705"/>
<stop offset="1" stop-color="#823B00"/>
</linearGradient>
<radialGradient id="paint3_radial_3628_504" cx="0" cy="0" r="1" gradientUnits="userSpaceOnUse" gradientTransform="translate(90.3402 39.1262) scale(968.373 568.815)">
<stop stop-color="#F59547"/>
<stop offset="1" stop-color="#A14C1F"/>
</radialGradient>
<linearGradient id="paint4_linear_3628_504" x1="500.906" y1="443.836" x2="500.906" y2="296.861" gradientUnits="userSpaceOnUse">
<stop stop-color="#692705"/>
<stop offset="1" stop-color="#823B00"/>
</linearGradient>
<radialGradient id="paint5_radial_3628_504" cx="0" cy="0" r="1" gradientUnits="userSpaceOnUse" gradientTransform="translate(92.8096 234.646) scale(891.333 523.562)">
<stop stop-color="#F59547"/>
<stop offset="1" stop-color="#A14C1F"/>
</radialGradient>
<linearGradient id="paint6_linear_3628_504" x1="500.43" y1="597.004" x2="500.43" y2="440.767" gradientUnits="userSpaceOnUse">
<stop stop-color="#692705"/>
<stop offset="1" stop-color="#823B00"/>
</linearGradient>
<radialGradient id="paint7_radial_3628_504" cx="0" cy="0" r="1" gradientUnits="userSpaceOnUse" gradientTransform="translate(141.636 363.932) scale(906.247 532.322)">
<stop stop-color="#F59547"/>
<stop offset="1" stop-color="#A14C1F"/>
</radialGradient>
<radialGradient id="paint8_radial_3628_504" cx="0" cy="0" r="1" gradientUnits="userSpaceOnUse" gradientTransform="translate(220.102 -64.381) scale(675.79 396.954)">
<stop stop-color="#CFA04D"/>
<stop offset="1" stop-color="white"/>
</radialGradient>
<radialGradient id="paint9_radial_3628_504" cx="0" cy="0" r="1" gradientUnits="userSpaceOnUse" gradientTransform="translate(943.01 -75.0946) scale(366.868 215.496)">
<stop stop-color="#CFA04D"/>
<stop offset="1" stop-color="white"/>
</radialGradient>
<radialGradient id="paint10_radial_3628_504" cx="0" cy="0" r="1" gradientUnits="userSpaceOnUse" gradientTransform="translate(535.294 87.2245) scale(685.195 402.478)">
<stop stop-color="#CFA04D"/>
<stop offset="1" stop-color="white"/>
</radialGradient>
<radialGradient id="paint11_radial_3628_504" cx="0" cy="0" r="1" gradientUnits="userSpaceOnUse" gradientTransform="translate(191.32 101.788) scale(653.467 383.841)">
<stop stop-color="#CFA04D"/>
<stop offset="1" stop-color="white"/>
</radialGradient>
<radialGradient id="paint12_radial_3628_504" cx="0" cy="0" r="1" gradientUnits="userSpaceOnUse" gradientTransform="translate(925.909 118.081) scale(455.973 267.835)">
<stop stop-color="#CFA04D"/>
<stop offset="1" stop-color="white"/>
</radialGradient>
<radialGradient id="paint13_radial_3628_504" cx="0" cy="0" r="1" gradientUnits="userSpaceOnUse" gradientTransform="translate(493.116 373.139) scale(349.389 205.229)">
<stop stop-color="#CFA04D"/>
<stop offset="1" stop-color="white"/>
</radialGradient>
<radialGradient id="paint14_radial_3628_504" cx="0" cy="0" r="1" gradientUnits="userSpaceOnUse" gradientTransform="translate(318.611 172.82) scale(935.695 549.62)">
<stop stop-color="#CFA04D"/>
<stop offset="1" stop-color="white"/>
</radialGradient>
<radialGradient id="paint15_radial_3628_504" cx="0" cy="0" r="1" gradientUnits="userSpaceOnUse" gradientTransform="translate(529.213 364.657) scale(750.361 440.756)">
<stop stop-color="#CFA04D"/>
<stop offset="1" stop-color="white"/>
</radialGradient>
<radialGradient id="paint16_radial_3628_504" cx="0" cy="0" r="1" gradientUnits="userSpaceOnUse" gradientTransform="translate(355.469 665.971) scale(601.03 353.04)">
<stop stop-color="#CFA04D"/>
<stop offset="1" stop-color="white"/>
</radialGradient>
<linearGradient id="paint17_linear_3628_504" x1="2.94487" y1="61.6128" x2="893.423" y2="61.6128" gradientUnits="userSpaceOnUse">
<stop stop-color="#A48A7B"/>
<stop offset="1" stop-color="#945534"/>
</linearGradient>
<linearGradient id="paint18_linear_3628_504" x1="0.0947794" y1="203.063" x2="737.821" y2="203.063" gradientUnits="userSpaceOnUse">
<stop stop-color="#A48A7B"/>
<stop offset="1" stop-color="#945534"/>
</linearGradient>
<linearGradient id="paint19_linear_3628_504" x1="0.569645" y1="352.939" x2="808.592" y2="352.939" gradientUnits="userSpaceOnUse">
<stop stop-color="#A48A7B"/>
<stop offset="1" stop-color="#945534"/>
</linearGradient>
<linearGradient id="paint20_linear_3628_504" x1="3.98953" y1="500.081" x2="566.737" y2="500.081" gradientUnits="userSpaceOnUse">
<stop stop-color="#A48A7B"/>
<stop offset="1" stop-color="#945534"/>
</linearGradient>
</defs>
</svg>
