<svg display="currentColor" xmlns="http://www.w3.org/2000/svg">
	<symbol id="download" viewBox="0 0 30 30" fill="currentColor">
		<path
			d="M15 0C6.72517 0 0 6.71012 0 15C0 23.2899 6.71013 30 15 30C23.2899 30 30 23.2899 30 15C30 6.71012 23.2748 0 15 0ZM12.2768 14.6239H13.2547C13.4654 14.6239 13.6459 14.4584 13.6459 14.2327V8.33501C13.6459 8.12438 13.8114 7.94382 14.0371 7.94382H15.9629C16.1735 7.94382 16.3541 8.10933 16.3541 8.33501V14.2327C16.3541 14.4433 16.5195 14.6239 16.7452 14.6239H17.7231C18.0391 14.6239 18.2196 15 18.0241 15.2558L15.3009 18.671C15.1505 18.8666 14.8495 18.8666 14.6991 18.671L11.991 15.2558C11.7803 15 11.9609 14.6239 12.2768 14.6239ZM23.5155 20.2507V21.65C23.5155 21.8606 23.3501 22.0411 23.1244 22.0411H8.39516H6.86056C6.64993 22.0411 6.46941 21.8756 6.46941 21.65V20.2507V16.4443C6.46941 16.2337 6.63489 16.0532 6.86056 16.0532H8.00401C8.21464 16.0532 8.39516 16.2186 8.39516 16.4443V19.8596C8.39516 20.0702 8.56067 20.2507 8.78635 20.2507H21.1534C21.3641 20.2507 21.5446 20.0853 21.5446 19.8596V16.4443C21.5446 16.2337 21.7101 16.0532 21.9358 16.0532H23.1394C23.35 16.0532 23.5306 16.2186 23.5306 16.4443V20.2507H23.5155Z" />
	</symbol>
	<symbol id="download-arrow-pointer" viewBox="0 0 184 195" fill="v">
		<g filter="url(#filter0_d_2_49)">
			<path d="M92 0L12.3257 52.5H171.674L92 0Z" fill="#3683F7" />
		</g>
		<g filter="url(#filter1_d_2_49)">
			<rect x="172" y="187" width="160" height="135" transform="rotate(180 172 187)" fill="#3683F7" />
		</g>
		<defs>
			<filter id="filter0_d_2_49" x="8.32568" y="0" width="167.349" height="60.5" filterUnits="userSpaceOnUse"
				color-interpolation-filters="sRGB">
				<feFlood flood-opacity="0" result="BackgroundImageFix" />
				<feColorMatrix in="SourceAlpha" type="matrix" values="0 0 0 0 0 0 0 0 0 0 0 0 0 0 0 0 0 0 127 0"
					result="hardAlpha" />
				<feOffset dy="4" />
				<feGaussianBlur stdDeviation="2" />
				<feColorMatrix type="matrix" values="0 0 0 0 0 0 0 0 0 0 0 0 0 0 0 0 0 0 0.25 0" />
				<feBlend mode="normal" in2="BackgroundImageFix" result="effect1_dropShadow_2_49" />
				<feBlend mode="normal" in="SourceGraphic" in2="effect1_dropShadow_2_49" result="shape" />
			</filter>
			<filter id="filter1_d_2_49" x="8" y="52" width="168" height="143" filterUnits="userSpaceOnUse"
				color-interpolation-filters="sRGB">
				<feFlood flood-opacity="0" result="BackgroundImageFix" />
				<feColorMatrix in="SourceAlpha" type="matrix" values="0 0 0 0 0 0 0 0 0 0 0 0 0 0 0 0 0 0 127 0"
					result="hardAlpha" />
				<feOffset dy="4" />
				<feGaussianBlur stdDeviation="2" />
				<feColorMatrix type="matrix" values="0 0 0 0 0 0 0 0 0 0 0 0 0 0 0 0 0 0 0.25 0" />
				<feBlend mode="normal" in2="BackgroundImageFix" result="effect1_dropShadow_2_49" />
				<feBlend mode="normal" in="SourceGraphic" in2="effect1_dropShadow_2_49" result="shape" />
			</filter>
		</defs>
	</symbol>


</svg>